<svg width="80" height="84" viewBox="0 0 80 84" fill="none" xmlns="http://www.w3.org/2000/svg">
<path fill-rule="evenodd" clip-rule="evenodd" d="M78.8031 44.8165H77.1891C77.036 44.8165 73.43 44.7825 70.6815 41.9818L62.603 33.7228C62.0291 33.1377 61.4967 32.8398 61.0198 32.8398C60.5431 32.8398 60.0119 33.1352 59.4387 33.7183L57.0169 36.1991C56.7931 36.429 56.4859 36.5588 56.1691 36.5588C55.8547 36.5588 55.5476 36.429 55.3262 36.1991C55.3262 36.1991 51.2844 32.0704 49.6654 30.421C49.0957 29.8332 48.5593 29.537 48.0861 29.537C47.61 29.537 47.077 29.8332 46.5055 30.4173L44.0774 32.8951C43.6332 33.3521 42.8413 33.3556 42.3917 32.8951L35.149 25.5003L24.677 36.1991C24.4503 36.429 24.1466 36.5588 23.8282 36.5588C23.513 36.5588 23.2101 36.429 22.9884 36.1991L20.5586 33.7183C19.4187 32.5512 18.5482 32.5512 17.4004 33.7183L9.31542 41.9818C6.5706 44.7825 2.96266 44.8165 2.81133 44.8165H1.19492C0.532702 44.8165 0 44.2674 0 43.5932C0 42.9206 0.532702 42.3749 1.19492 42.3749H2.81133C2.83192 42.3749 5.59505 42.3227 7.62471 40.2544L15.71 31.9965C17.7804 29.877 20.1769 29.8745 22.2534 31.9965L23.8282 33.6108L34.3037 22.9117C34.7728 22.4344 35.5287 22.4344 35.9925 22.9117L43.234 30.3068L44.8129 28.6937C45.8519 27.6332 46.9499 27.0962 48.0861 27.0962C49.2186 27.0962 50.3171 27.6332 51.3535 28.6937C52.5105 29.8694 54.8971 32.3078 56.1691 33.6108L57.7499 31.9965C58.7861 30.9383 59.8841 30.3998 61.0198 30.3998C62.1536 30.3998 63.2521 30.9346 64.292 31.9965L72.3745 40.2544C74.4257 42.3495 77.1626 42.3749 77.1891 42.3749H78.8031C79.4652 42.3749 80 42.9206 80 43.5932C80 44.2674 79.4652 44.8165 78.8031 44.8165" fill="#81B941"/>
<path fill-rule="evenodd" clip-rule="evenodd" d="M78.8031 37.2957H77.1891C77.036 37.2957 73.43 37.2627 70.6815 34.4601L62.5996 26.2033C61.4561 25.0342 60.5863 25.0342 59.4387 26.2033L57.0169 28.6804C56.5658 29.1386 55.7727 29.1386 55.3262 28.6804L49.6654 22.8985C48.5152 21.7244 47.6544 21.7205 46.5055 22.8985L44.0774 25.3768C43.6127 25.8519 42.8572 25.8519 42.3917 25.3784L35.149 17.9817L24.677 28.6804C24.2077 29.1556 23.4511 29.1556 22.9884 28.6804L20.5586 26.2033C19.4187 25.0342 18.5439 25.0342 17.4004 26.2033L9.31542 34.4601C6.5706 37.2627 2.96266 37.2957 2.81133 37.2957H1.19492C0.532702 37.2957 0 36.7499 0 36.077C0 35.3986 0.532702 34.8554 1.19492 34.8554H2.81133C2.83192 34.8554 5.59505 34.8066 7.62471 32.735L15.71 24.4748C17.7836 22.3615 20.1769 22.3562 22.2534 24.4748L23.8282 26.0889L34.3037 15.3918C34.7728 14.9156 35.5287 14.9156 35.9925 15.3918L43.234 22.788L44.8129 21.1721C46.8921 19.0469 49.2738 19.0508 51.3535 21.1721L56.1691 26.0889L57.7499 24.4748C59.8205 22.3615 62.2134 22.3562 64.292 24.4748L72.3745 32.735C74.4002 34.8066 77.1659 34.8554 77.1934 34.8554H78.8031C79.4652 34.8554 80 35.3986 80 36.077C80 36.7499 79.4652 37.2957 78.8031 37.2957" fill="#BDC431"/>
<path fill-rule="evenodd" clip-rule="evenodd" d="M78.8133 29.3754L77.1982 29.3921C77.0501 29.3921 73.4405 29.3982 70.6688 26.6239C67.8828 23.8376 63.5852 19.5329 62.5019 18.4507C61.3451 17.2926 60.4717 17.3006 59.3417 18.4812L56.9417 20.984C56.7217 21.2162 56.4163 21.3475 56.102 21.3531C55.7838 21.3555 55.4778 21.2297 55.2528 21.0036L49.5365 15.2822C48.38 14.1226 47.507 14.1315 46.3721 15.3132L43.9747 17.8154C43.5312 18.278 42.738 18.2857 42.2832 17.8335L34.9718 10.5141L24.6041 21.319C24.1422 21.798 23.3839 21.806 22.9153 21.3385L20.4646 18.8825C19.3107 17.7247 18.435 17.7341 17.3031 18.9153C16.48 19.7725 13.755 22.6142 11.3035 25.1706L9.3004 27.2552C6.58151 30.0886 2.97342 30.1553 2.82621 30.159L1.21163 30.1746C0.548804 30.1841 0.00893224 29.6436 0.00130478 28.9673C-0.00647523 28.2931 0.526684 27.7421 1.18493 27.7342L2.79753 27.7194C2.82209 27.7156 5.58506 27.6393 7.59444 25.5492L9.5936 23.4628C12.0506 20.9066 14.7743 18.0664 15.5976 17.2094C17.6488 15.0675 20.0417 15.0444 22.1383 17.1408L23.7309 18.7368L34.1022 7.93371C34.5622 7.45237 35.3181 7.44427 35.79 7.91594L43.1033 15.2345L44.6668 13.6071C46.7189 11.4652 49.1173 11.442 51.207 13.5383L56.0715 18.4056L57.6359 16.7759C59.6863 14.6382 62.0803 14.6114 64.1774 16.707C65.2559 17.7934 69.5552 22.0933 72.3404 24.8814C74.4145 26.9569 77.1485 26.9546 77.1778 26.9507L78.794 26.9359C79.4532 26.9279 79.9914 27.4718 79.9984 28.1451C80.0036 28.8185 79.4758 29.37 78.8133 29.3754" fill="#EA912B"/>
<path fill-rule="evenodd" clip-rule="evenodd" d="M78.8031 22.2578H77.1891C77.036 22.2578 73.43 22.2249 70.6815 19.4237L62.603 11.1652C62.0253 10.5809 61.4941 10.2846 61.0198 10.2846C60.5431 10.2864 60.0119 10.5809 59.4387 11.1652C57.8224 12.8125 57.0169 13.6398 57.0169 13.6413C56.7931 13.8735 56.4859 14.0011 56.1691 14.0011C55.8547 14.0011 55.5476 13.8735 55.3262 13.6413C55.3262 13.6413 51.2844 9.51224 49.6654 7.86381C49.0957 7.27559 48.5593 6.9828 48.0861 6.9828C47.61 6.9828 47.077 7.27559 46.5055 7.86163L44.0832 10.3378C43.8593 10.5681 43.5546 10.6976 43.234 10.6976C42.9176 10.6976 42.6158 10.5681 42.3917 10.3378L35.149 2.94548L24.677 13.6413C24.2077 14.1208 23.4511 14.1208 22.9884 13.6413L20.5586 11.1652C19.4187 9.99513 18.5482 9.99341 17.4004 11.1652L9.31542 19.4237C6.5706 22.2249 2.96266 22.2578 2.81133 22.2578H1.19492C0.532702 22.2578 0 21.7096 0 21.036C0 20.3631 0.532702 19.8167 1.19492 19.8167H2.81133C2.83192 19.8167 5.59505 19.766 7.62471 17.696L15.71 9.44212C16.7487 8.38051 17.8457 7.84433 18.9791 7.84433C20.1157 7.84433 21.2136 8.38051 22.2534 9.44212L23.8282 11.0527L34.3037 0.356674C34.7728 -0.118891 35.5287 -0.118891 35.9925 0.356674L43.234 7.75053L44.8129 6.13623C45.8519 5.07664 46.9499 4.53906 48.0861 4.53906C49.2186 4.5428 50.3171 5.07664 51.3535 6.13623C52.5105 7.31392 54.8971 9.75033 56.1691 11.0527C56.5626 10.6558 57.0873 10.115 57.7536 9.44212C58.7861 8.38051 59.8841 7.84433 61.0198 7.84433C62.1536 7.84433 63.2521 8.38051 64.292 9.44212L72.3745 17.696C74.4257 19.7924 77.1626 19.8167 77.1891 19.8167H78.8031C79.4652 19.8167 80 20.3631 80 21.036C80 21.7096 79.4652 22.2578 78.8031 22.2578" fill="#EF4E23"/>
<path fill-rule="evenodd" clip-rule="evenodd" d="M76.0898 59.2279C77.0299 59.2279 77.4623 58.9897 77.644 58.7943C77.8388 58.597 78.0731 58.16 78.0731 57.2012C78.0731 56.2507 77.842 55.8111 77.6478 55.6131C77.4553 55.4177 77.0186 55.1768 76.0898 55.1768C75.1674 55.1768 74.7326 55.4082 74.5221 55.6131C74.336 55.8161 74.1079 56.2507 74.1079 57.2012C74.1079 58.1704 74.3409 58.597 74.5312 58.7909C74.725 58.9897 75.1546 59.2279 76.0898 59.2279" fill="#0F1420"/>
<path fill-rule="evenodd" clip-rule="evenodd" d="M47.3594 70.8967C47.3594 70.0322 47.7745 69.5144 49.0965 69.5144H54.0796V73.0038H49.0965C47.7745 73.0038 47.3594 72.1742 47.3594 71.3157V70.8967ZM52.7859 61.5283H46.2322C45.8263 61.5283 44.9921 62.0375 44.9921 62.9377C44.9921 64.4442 46.2322 64.3114 46.6268 64.3114H52.7859C53.237 64.3114 53.717 64.825 53.9185 65.199C54.2146 65.7492 54.0751 66.2865 54.0789 66.8535H49.0959C44.7163 66.8535 44.2477 69.4718 44.2477 70.7754V71.1917C44.2477 72.4891 44.7163 75.5171 49.0959 75.5171H57.2254V66.7968C57.1915 63.4512 55.5757 61.5283 52.7859 61.5283V61.5283Z" fill="#0F1420"/>
<path fill-rule="evenodd" clip-rule="evenodd" d="M5.04097 71.1518C5.04097 70.2873 5.45789 69.7695 6.78049 69.7695H11.7608V73.2589H6.78049C5.45789 73.2589 5.04097 72.4293 5.04097 71.5708V71.1518ZM10.462 61.7832H3.9077C3.50528 61.7832 2.67495 62.2924 2.67495 63.1926C2.67495 64.6991 3.9077 64.5663 4.31425 64.5663H10.4656C10.9141 64.5663 11.4003 65.0799 11.5977 65.4539C11.8956 66.0041 11.7558 66.5413 11.7597 67.1084H6.77944C2.39914 67.1084 1.92639 69.7266 1.92639 71.0302V71.4466C1.92639 72.7439 2.39914 75.772 6.77944 75.772H14.9032V67.0517C14.8751 63.706 13.2545 61.7832 10.462 61.7832V61.7832Z" fill="#0F1420"/>
<path fill-rule="evenodd" clip-rule="evenodd" d="M69.1684 61.5019L66.243 61.4526C62.9619 61.4526 61.7943 63.8976 61.7943 65.9853V75.5172H64.9448V65.9853C64.9448 65.1975 65.228 64.3712 66.3018 64.3712L69.3336 64.3504C69.7372 64.3504 70.8513 64.1722 70.8609 63.0612C70.8719 61.7928 69.574 61.5019 69.1684 61.5019" fill="#0F1420"/>
<path fill-rule="evenodd" clip-rule="evenodd" d="M31.0425 64.4457H34.3831C36.4032 64.4457 37.7279 64.9691 37.7279 67.3695V69.7274C37.7279 72.1232 36.4032 72.7831 34.3831 72.7831H31.0425V64.4457ZM34.3822 61.582H27.8981V82.6953C27.8981 83.1043 28.2247 83.8837 29.4686 83.8837C30.7137 83.8837 31.0415 83.1043 31.0415 82.6953V75.5176H34.3822C35.9832 75.5176 40.8745 75.5176 40.8745 69.7271V67.3692C40.8693 61.582 35.9832 61.582 34.3822 61.582V61.582Z" fill="#0F1420"/>
<path fill-rule="evenodd" clip-rule="evenodd" d="M21.1283 52.5659C19.8845 52.5659 19.5533 53.3419 19.5533 53.7534V75.5169H22.7035V53.7534C22.7035 53.3419 22.3802 52.5659 21.1283 52.5659" fill="#0F1420"/>
<path fill-rule="evenodd" clip-rule="evenodd" d="M76.0893 61.5283C74.8433 61.5283 74.5162 62.3077 74.5162 62.7168V75.5171H77.6644V62.7168C77.6644 62.3077 77.3363 61.5283 76.0893 61.5283" fill="#0F1420"/>
</svg>
