<svg width="434" height="249" viewBox="0 0 434 249" fill="none" xmlns="http://www.w3.org/2000/svg">
<path d="M71.9492 73.8167L59.7905 73.8167C58.6859 73.8167 57.7905 74.7121 57.7905 75.8167L57.7905 100.519C57.7905 101.624 58.6859 102.519 59.7905 102.519L71.9492 102.519C73.0538 102.519 73.9492 101.624 73.9492 100.519L73.9492 75.8167C73.9492 74.7121 73.0538 73.8167 71.9492 73.8167Z" fill="#9BD024" stroke="#0F1420" stroke-width="1.5" stroke-linecap="round"/>
<path d="M65.7055 46.9079L65.7055 73.545" stroke="#0F1420" stroke-width="1.5" stroke-linecap="round"/>
<path d="M66.0797 102.649L66.0796 130.738" stroke="#0F1420" stroke-width="1.5" stroke-linecap="round"/>
<path d="M42.6996 111.15L30.7049 111.15C29.6003 111.15 28.7049 112.046 28.7049 113.15L28.7049 123.717C28.7049 124.822 29.6003 125.717 30.7049 125.717L42.6996 125.717C43.8041 125.717 44.6996 124.822 44.6996 123.717L44.6996 113.15C44.6996 112.046 43.8041 111.15 42.6996 111.15Z" fill="#0F1420" stroke="#0F1420" stroke-width="1.5" stroke-linecap="round"/>
<path d="M36.7034 80.6384L36.7034 111.152" stroke="#0F1420" stroke-width="1.5" stroke-linecap="round"/>
<path d="M36.704 126.325L36.7042 139.071" stroke="#0F1420" stroke-width="1.5" stroke-linecap="round"/>
<path d="M98.8533 36.9328H86.4839C85.3793 36.9328 84.4839 37.8282 84.4839 38.9328V68.559C84.4839 69.6636 85.3793 70.559 86.4839 70.559H98.8533C99.9579 70.559 100.853 69.6636 100.853 68.559V38.9328C100.853 37.8282 99.9579 36.9328 98.8533 36.9328Z" stroke="#0F1420" stroke-width="1.5" stroke-linecap="round"/>
<path d="M92.3597 12.4773V36.0437" stroke="#0F1420" stroke-width="1.5" stroke-linecap="round"/>
<path d="M92.3595 71.3233V81.6726" stroke="#0F1420" stroke-width="1.5" stroke-linecap="round"/>
<path d="M125.946 17.996H113.653C112.548 17.996 111.653 18.8914 111.653 19.996V48.471C111.653 49.5756 112.548 50.471 113.653 50.471H125.946C127.051 50.471 127.946 49.5756 127.946 48.471V19.996C127.946 18.8914 127.051 17.996 125.946 17.996Z" fill="#9BD024" stroke="#0F1420" stroke-width="1.5" stroke-linecap="round"/>
<path d="M119.339 0.751033L119.339 17.4946" stroke="#0F1420" stroke-width="1.5" stroke-linecap="round"/>
<path d="M119.339 50.4705V71.4072" stroke="#0F1420" stroke-width="1.5" stroke-linecap="round"/>
<path d="M181.828 69.242H169.67C168.565 69.242 167.67 70.1375 167.67 71.242V87.2791C167.67 88.3837 168.565 89.2791 169.67 89.2791H181.828C182.933 89.2791 183.828 88.3837 183.828 87.2791V71.242C183.828 70.1375 182.933 69.242 181.828 69.242Z" stroke="#0F1420" stroke-width="1.5" stroke-linecap="round"/>
<path d="M175.655 50.4586L175.634 68.7803" stroke="#0F1420" stroke-width="1.5" stroke-linecap="round"/>
<path d="M175.667 90.531V97.8804" stroke="#0F1420" stroke-width="1.5" stroke-linecap="round"/>
<path d="M210.75 93.4241H198.755C197.651 93.4241 196.755 94.3196 196.755 95.4241V122.351C196.755 123.455 197.651 124.351 198.755 124.351H210.75C211.855 124.351 212.75 123.455 212.75 122.351V95.4241C212.75 94.3196 211.855 93.4241 210.75 93.4241Z" stroke="#0F1420" stroke-width="1.5" stroke-linecap="round"/>
<path d="M204.829 52.2337L204.832 93.4243" stroke="#0F1420" stroke-width="1.5" stroke-linecap="round"/>
<path d="M204.752 124.351V141.634" stroke="#0F1420" stroke-width="1.5" stroke-linecap="round"/>
<path d="M239.738 64.6603H227.761C226.656 64.6603 225.761 65.5557 225.761 66.6603V98.1659C225.761 99.2705 226.656 100.166 227.761 100.166H239.738C240.843 100.166 241.738 99.2705 241.738 98.1659V66.6603C241.738 65.5557 240.843 64.6603 239.738 64.6603Z" stroke="#0F1420" stroke-width="1.5" stroke-linecap="round"/>
<path d="M233.838 100.022V121.263" stroke="#0F1420" stroke-width="1.5" stroke-linecap="round"/>
<path d="M270.732 36.7637H258.363C257.258 36.7637 256.363 37.6591 256.363 38.7637V59.3178C256.363 60.4224 257.258 61.3178 258.363 61.3178H270.732C271.837 61.3178 272.732 60.4224 272.732 59.3178V38.7637C272.732 37.6591 271.837 36.7637 270.732 36.7637Z" stroke="#0F1420" stroke-width="1.5" stroke-linecap="round"/>
<path d="M265.12 11.6769L265.12 36.7638" stroke="#0F1420" stroke-width="1.5" stroke-linecap="round"/>
<path d="M265.12 62.5892V88.5317" stroke="#0F1420" stroke-width="1.5" stroke-linecap="round"/>
<path d="M154.659 30.4837H142.664C141.56 30.4837 140.664 31.3791 140.664 32.4837V53.601C140.664 54.7055 141.56 55.601 142.664 55.601H154.659C155.764 55.601 156.659 54.7055 156.659 53.601V32.4837C156.659 31.3791 155.764 30.4837 154.659 30.4837Z" fill="#0F1420" stroke="#0F1420" stroke-width="1.5" stroke-linecap="round"/>
<path d="M148.587 4.29264L148.587 30.4836" stroke="#0F1420" stroke-width="1.5" stroke-linecap="round"/>
<path d="M148.325 55.8563L148.325 68.1333" stroke="#0F1420" stroke-width="1.5" stroke-linecap="round"/>
<path d="M301.459 60.4315H289.465C288.36 60.4315 287.465 61.3269 287.465 62.4315V83.5487C287.465 84.6533 288.36 85.5487 289.465 85.5487H301.459C302.564 85.5487 303.459 84.6533 303.459 83.5487V62.4315C303.459 61.3269 302.564 60.4315 301.459 60.4315Z" fill="#9BD024" stroke="#0F1420" stroke-width="1.5" stroke-linecap="round"/>
<path d="M295.462 26.9421L295.466 60.4319" stroke="#0F1420" stroke-width="1.5" stroke-linecap="round"/>
<path d="M295.462 86.595V111.256" stroke="#0F1420" stroke-width="1.5" stroke-linecap="round"/>
<path d="M14.9947 125.671H3C1.89543 125.671 1 126.567 1 127.671V138.788C1 139.893 1.89543 140.788 3 140.788H14.9947C16.0993 140.788 16.9947 139.893 16.9947 138.788V127.671C16.9947 126.567 16.0993 125.671 14.9947 125.671Z" stroke="#0F1420" stroke-width="1.5" stroke-linecap="round"/>
<path d="M8.997 105.515L8.98155 125.672" stroke="#0F1420" stroke-width="1.5" stroke-linecap="round"/>
<path d="M8.99728 141.418V156.261" stroke="#0F1420" stroke-width="1.5" stroke-linecap="round"/>
<path d="M430.761 68.8574H418.783C417.679 68.8574 416.783 69.7528 416.783 70.8574V79.2844C416.783 80.3889 417.679 81.2844 418.783 81.2844H430.761C431.865 81.2844 432.761 80.3889 432.761 79.2844V70.8574C432.761 69.7528 431.865 68.8574 430.761 68.8574Z" fill="#0F1420" stroke="#0F1420" stroke-width="1.5" stroke-linecap="round"/>
<path d="M424.78 35.1267L424.784 68.6164" stroke="#0F1420" stroke-width="1.5" stroke-linecap="round"/>
<path d="M424.78 81.2843V105.946" stroke="#0F1420" stroke-width="1.5" stroke-linecap="round"/>
<path d="M339.109 52.5482H327.114C326.01 52.5482 325.114 53.4436 325.114 54.5482V74.7686C325.114 75.8732 326.01 76.7686 327.114 76.7686H339.109C340.214 76.7686 341.109 75.8732 341.109 74.7686V54.5482C341.109 53.4436 340.214 52.5482 339.109 52.5482Z" stroke="#0F1420" stroke-width="1.5" stroke-linecap="round"/>
<path d="M333.111 30.9305L333.116 52.5482" stroke="#0F1420" stroke-width="1.5" stroke-linecap="round"/>
<path d="M333.112 76.7685V92.6875" stroke="#0F1420" stroke-width="1.5" stroke-linecap="round"/>
<path d="M376.452 50.2174H364.457C363.353 50.2174 362.457 51.1129 362.457 52.2174V73.3347C362.457 74.4393 363.353 75.3347 364.457 75.3347H376.452C377.557 75.3347 378.452 74.4393 378.452 73.3347V52.2174C378.452 51.1129 377.557 50.2174 376.452 50.2174Z" fill="#9BD024" stroke="#0F1420" stroke-width="1.5" stroke-linecap="round"/>
<path d="M370.454 16.7281L370.459 50.2178" stroke="#0F1420" stroke-width="1.5" stroke-linecap="round"/>
<path d="M370.455 76.381V101.042" stroke="#0F1420" stroke-width="1.5" stroke-linecap="round"/>
<path d="M401.687 77.9431H389.693C388.588 77.9431 387.693 78.8385 387.693 79.9431V101.06C387.693 102.165 388.588 103.06 389.693 103.06H401.687C402.792 103.06 403.687 102.165 403.687 101.06V79.9431C403.687 78.8385 402.792 77.9431 401.687 77.9431Z" stroke="#0F1420" stroke-width="1.5" stroke-linecap="round"/>
<path d="M395.69 44.4538L395.694 77.9435" stroke="#0F1420" stroke-width="1.5" stroke-linecap="round"/>
<path d="M395.69 104.107V128.768" stroke="#0F1420" stroke-width="1.5" stroke-linecap="round"/>
<path d="M182.913 39.2192L228.642 16.9941M228.642 16.9941L223.311 33.9043M228.642 16.9941L212.379 11.0186" stroke="#0F1420" stroke-width="1.5" stroke-linecap="round"/>
<path d="M34.7936 178.953L69.1581 153.651M69.1581 153.651L67.7735 171.328M69.1581 153.651L51.9677 151.493" stroke="#0F1420" stroke-width="1.5" stroke-linecap="round"/>
<path d="M361.945 128.173L396.443 160.084M396.443 160.084L381.901 160.083M396.443 160.084L396.443 145.774" stroke="#0F1420" stroke-width="1.5" stroke-linecap="round"/>
<path d="M187.789 135.854C183.096 133.247 181.053 153.888 180.619 164.534C187.398 165.577 191.7 168.88 193.003 170.401C196.132 167.272 196.914 160.841 196.914 158.016C197.957 151.759 194.741 148.891 193.003 148.239C191.96 145.11 189.527 145.197 188.441 145.632C190.005 137.81 188.658 135.854 187.789 135.854Z" fill="white" stroke="#0F1420"/>
<path d="M168.886 131.943L168.234 115.648C163.541 118.255 162.368 134.985 162.368 143.024L169.538 146.283C170.059 144.198 169.755 141.938 169.538 141.069C177.36 131.683 177.577 128.033 176.708 127.381C175.144 126.859 170.842 130.205 168.886 131.943Z" fill="white" stroke="#0F1420"/>
<path d="M191.048 107.826H168.886V131.944C173.579 126.729 176.491 126.729 177.36 127.381C177.881 131.031 172.797 137.593 170.19 140.417C170.19 141.643 170.263 142.412 170.19 143.676C170.028 146.474 169.682 149.04 169.538 150.194H181.923C182.444 139.244 185.616 135.637 187.137 135.203C189.744 135.724 189.093 141.938 188.441 144.98L191.048 146.283V107.826Z" fill="white" stroke="#0F1420"/>
<path d="M112.83 132.595V159.319C98.2295 137.418 95.4485 112.823 95.883 103.263H99.7939C109.18 89.7057 135.861 85.8817 148.028 85.6644C144.378 104.958 128.691 109.782 121.304 109.782C122.347 120.732 118.697 126.077 116.741 127.38C113.091 121.123 108.702 120.428 106.964 120.862C104.357 127.12 109.788 131.291 112.83 132.595Z" fill="#9BD024"/>
<path d="M129.777 147.587L128.474 168.445L112.83 159.32V132.595C105.009 128.945 105.66 123.687 106.964 121.514C110.614 118.907 115.003 124.339 116.741 127.381C121.956 122.688 121.956 113.693 121.304 109.782C128.083 110.303 135.426 105.654 138.251 103.264L151.287 124.773L145.421 127.381C143.857 139.895 134.34 146.066 129.777 147.587Z" fill="white" stroke="#0F1420"/>
<path d="M234.719 30.9123C235.762 29.8694 237.327 30.9123 237.979 31.5642C238.649 32.0856 241.299 36.1268 242.541 38.0823L254.274 59.5921C262.617 51.2489 267.745 51.7704 269.266 53.074C266.137 56.2027 261.009 65.6757 258.837 70.0212C255.708 77.8429 254.057 88.0547 253.622 92.1828H236.675L238.63 81.102L230.809 64.8066C229.244 56.4634 231.46 52.6394 232.764 51.7704C232.243 44.9915 235.589 42.8622 237.327 42.645C233.416 36.1268 233.416 32.216 234.719 30.9123Z" fill="white" stroke="#0F1420"/>
<path d="M316.848 121.007L303.812 111.882L300.553 123.615C302.117 128.829 299.901 133.609 298.597 135.347C307.462 142.126 317.065 142.517 320.759 141.865C321.802 133.522 325.104 125.353 326.625 122.311L316.848 121.007Z" fill="white"/>
<path d="M303.812 156.205L311.634 180.322C297.033 183.973 284.257 189.23 279.695 191.403V152.294C287.516 155.423 298.163 154.033 302.508 152.946C311.894 145.646 315.979 146.428 316.848 147.732C318.934 154.511 309.026 156.205 303.812 156.205Z" fill="white"/>
<path d="M316.848 121.007L303.812 111.882L300.553 123.615C302.117 128.829 299.901 133.609 298.597 135.347C307.462 142.126 317.065 142.517 320.759 141.865C321.802 133.522 325.104 125.353 326.625 122.311L316.848 121.007Z" stroke="#0F1420"/>
<path d="M303.812 156.205L311.634 180.322C297.033 183.973 284.257 189.23 279.695 191.403V152.294C287.516 155.423 298.163 154.033 302.508 152.946C311.894 145.646 315.979 146.428 316.848 147.732C318.934 154.511 309.026 156.205 303.812 156.205Z" stroke="#0F1420"/>
<path d="M302.532 152.293L295.362 153.597C271.916 156.204 262.546 137.302 260.792 127.524L301.228 123.614C301.75 129.871 299.466 134.26 298.597 135.346C307.095 141.212 316.196 142.299 320.759 141.864C324.931 115.27 335.968 110.578 340.965 111.882C339.401 120.747 339.662 130.35 340.313 133.392C341.4 137.955 343.205 148.382 336.426 156.204C329.647 164.026 312.953 164.869 306 164L304.487 156.204C315.568 155.552 319.107 150.759 316.5 147.5C314.414 144.893 306.66 149.686 302.532 152.293Z" fill="#0F1420"/>
<path d="M236.047 149.687C232.918 127.265 236.047 102.105 238.002 92.3276H254.298C251.169 122.05 266.465 154.25 274.504 166.634L279.718 169.893V192.055C290.124 186.189 305.356 182.061 312.309 180.974C335.099 199.877 341.617 234.423 340.965 248.111H245.8C244.757 239.768 249.083 212.261 251.039 199.877C244.26 189.969 238.22 162.289 236.047 149.687Z" fill="#9BD024"/>
<path d="M128.474 168.445L112.83 159.972C95.6223 179.265 85.6713 226.239 82.8467 247.315H167.583C165.497 236.364 157.588 217.114 153.894 208.858C179.967 207.293 191.265 183.002 193.655 171.052C190.526 166.359 183.661 164.751 180.619 164.534C179.055 169.227 170.842 179.96 166.931 184.74C157.545 186.305 147.811 185.392 144.117 184.74C151.418 185.262 159.761 181.047 163.02 178.874C166.67 168.967 168.886 153.453 169.538 146.935L162.368 143.676L150.635 167.141C142.292 169.749 132.385 169.097 128.474 168.445Z" fill="#0F1420"/>
<path d="M273.828 166.632L279.695 170.543M273.828 166.632C265.221 169.88 254.926 182.93 250.363 200.529M273.828 166.632C257.697 139.158 252.591 115.705 253.315 96.8903M279.695 170.543V152.292M279.695 170.543V192.055C285.344 189.229 299.64 183.056 311.634 180.972M279.695 152.292C273.828 149.033 261.835 139.517 260.792 127.523L300.553 123.612M279.695 152.292C289.081 154.9 298.815 153.379 302.508 152.292C307.505 148.861 317.5 143.404 317.5 149.033C317.5 154.662 308.374 156.159 303.812 156.203L305.767 163.373M300.553 123.612C301.204 125.568 301.726 130.652 298.597 135.345C302.074 137.952 311.373 142.906 320.759 141.863C321.326 136.53 323.115 128.446 326.625 122.015M300.553 123.612L303.812 111.88L316.848 121.005M305.767 163.373C340.965 166.632 342.921 144.471 340.965 135.345C339.401 128.045 340.313 116.66 340.965 111.88C334.488 111.631 329.836 116.132 326.625 122.015M305.767 163.373L311.634 180.972M326.625 122.015L316.848 121.005M316.848 121.005C316.957 122.961 316.718 127.526 314.893 130.133M311.634 180.972C313.684 182.521 316.164 184.785 318.803 187.722C328.752 198.793 340.965 219.434 340.965 247.457M313.589 247.457L312.611 235.073M311.634 222.688L312.611 235.073M312.611 235.073L302.508 213.563M245.8 247.457C245.8 220.083 249.186 210.2 250.363 200.529M250.363 200.529C242.813 185.603 229.2 152.668 236.225 96.8903M232.764 51.9151C232.764 49.0906 233.155 42.7875 237.327 42.7875M232.764 51.9151C229.101 55.0148 229.777 60.8555 231.893 66.9068M232.764 51.9151C235.279 55.1456 238.969 60.6275 240.459 64.9514M237.327 42.7875C235.154 39.3112 232.243 32.4909 235.371 30.4051C238.5 28.3193 248.408 49.3078 254.274 59.7369M237.327 42.7875C242.022 47.3509 249.222 58.1725 240.459 64.9514M254.274 59.7369C256.664 57.5642 265.615 49.5664 269.266 53.2166C262.118 61.2959 255.238 74.5307 253.61 92.3276M254.274 59.7369C251.667 60.8232 246.322 64.821 245.8 72.1213M236.836 92.3276C237.355 88.6796 237.951 84.9845 238.63 81.2467C236.533 77.3523 233.693 72.0534 231.893 66.9068M236.836 92.3276H253.61M236.836 92.3276C236.619 93.8569 236.415 95.3779 236.225 96.8903M253.61 92.3276C253.474 93.8167 253.375 95.3377 253.315 96.8903M231.893 66.9068C235.368 72.6428 238.702 71.9041 239.934 70.8177C241.459 69.8257 241.374 67.607 240.459 64.9514M236.225 96.8903H253.315M112.83 159.464C106.964 150.339 95.3615 126.352 95.883 103.408H99.7939C103.488 99.063 112.83 87.1131 148.028 85.8094C146.924 90.8398 143.783 98.4197 138.065 103.408M112.83 159.464V132.088C105.53 129.483 105.877 123.614 106.964 121.005C110.614 118.919 115.003 124.482 116.741 127.523C121.434 122.829 122.173 114.488 121.304 109.927C128.474 109.927 133.657 107.254 138.065 103.408M112.83 159.464L128.474 168.59M112.83 159.464C105.66 167.719 89.6256 196.874 82.8467 247.457M128.474 168.59L129.777 147.08C133.339 146.432 139.771 143.204 143.466 135.345M128.474 168.59C133.688 169.892 144.378 168.849 150.635 167.286L162.368 143.167M128.474 168.59C132.602 171.292 139.294 178.221 143.466 184.885M138.065 103.408L151.287 124.266L145.421 127.523C145.022 131.378 144.73 132.656 143.466 135.345M129.777 115.141C130.864 114.054 133.688 111.88 136.296 111.88M143.466 135.345C141.51 135.129 139.322 135.345 135.229 132.088M118.697 213.563L128.474 205.091M128.474 205.091L120 202.484M128.474 205.091C134.852 207.217 144.52 209.761 153.894 208.858M193.655 170.543C191.7 168.588 186.355 164.679 180.619 164.679M193.655 170.543C187.338 197.139 170.386 207.267 153.894 208.858M193.655 170.543C195.611 167.282 196.914 162.724 196.914 156.205C196.914 150.991 194.307 148.384 193.003 147.732M180.619 164.679C178.337 169.394 173.118 178.111 166.435 184.885M180.619 164.679C180.727 161.23 181.08 155.719 181.791 150.339M163.02 187.999C164.324 187.348 163.571 187.788 166.435 184.885M166.435 184.885C162.403 185.819 152.012 186.397 143.466 184.885M129.777 179.019C135.014 182.241 138.087 183.934 143.466 184.885M162.368 143.167C162.151 136.431 162.629 119.313 168.886 115.141M162.368 143.167L169.608 147.08M168.886 115.141V132.088M168.886 115.141V107.971H191.048V145.636M168.886 132.088L166.435 134.044M168.886 132.088C171.059 129.914 175.795 125.957 177.36 127.523C178.545 128.71 174.125 135.213 170.046 140.562M167.583 143.167C168.622 141.904 168.743 142.271 170.046 140.562M170.046 140.562V143.821C169.924 144.727 169.778 145.83 169.608 147.08M143.466 184.885C148.316 186.042 159.392 181.504 163.02 179.019C165.488 174.723 167.788 160.112 169.159 150.339M153.894 208.858C156.502 215.545 163.02 230.367 167.583 247.457M188.441 150.339C188.441 148.384 188.371 147.122 188.591 145.125M188.591 145.125C189.026 141.178 189.739 136.865 188.441 135.999C186.876 134.956 185.616 135.999 185.182 136.651C183.605 139.542 182.513 144.872 181.791 150.339M188.591 145.125C189.212 145.125 190.173 145.253 191.048 145.636M193.003 147.732C193.221 149.035 193.655 151.512 193.655 153.598M193.003 147.732C192.74 146.68 191.939 146.025 191.048 145.636M169.608 147.08C169.473 148.081 169.322 149.176 169.159 150.339M169.159 150.339H181.791M172.797 124.266L177.36 119.704L181.791 124.135L186.222 119.704" stroke="#0F1420" stroke-width="1.5" stroke-linecap="round"/>
</svg>
